#!OML:ASF F:\VICON\USERDATA\INSTALL\rory3\rory3.ASF
:FULLY-SPECIFIED
:DEGREES
1079
root 5.5736 17.4393 1.44835 19.2297 2.43745 1.06505
lowerback -10.4244 -1.07998 9.91278
upperback -14.0974 -1.82973 0.522035
thorax -9.81327 -1.89094 -4.9727
lowerneck -3.01415 19.9527 10.7856
upperneck 8.30785 26.1742 -0.183999
head 4.33366 13.2442 -0.0612044
rclavicle 1.90833e-014 1.66979e-014
rhumerus -8.66333 -30.2537 31.1126
rradius 112.503
rwrist -63.4991
rhand -5.1823 -43.6841
rfingers 7.12502
rthumb 20.6182 -72.609
lclavicle 1.90833e-014 1.66979e-014
lhumerus 22.5763 25.2185 -14.143
lradius 32.5178
lwrist 55.9133
lhand -20.7334 -13.3442
lfingers 7.12502
lthumb 5.63177 16.5609
rfemur -10.6031 11.0779 -9.0055
rtibia 10.2519
rfoot -16.7563 -20.8977
rtoes 43.5618
lfemur -17.9014 3.23053 -30.9046
ltibia 16.0125
lfoot -16.1315 1.60322
ltoes 9.2006
1080
root 5.56621 17.4422 1.43607 19.5486 2.66015 1.15927
lowerback -10.6278 -1.17945 9.72933
upperback -14.1562 -1.97203 0.563239
thorax -9.7734 -1.94146 -4.83177
lowerneck -3.97305 20.0631 10.4832
upperneck 9.17914 26.1825 0.414458
head 4.63706 13.2675 0.27606
rclavicle -4.96962e-015 7.15625e-015
rhumerus -8.67395 -30.3775 31.0615
rradius 112.507
rwrist -63.433
rhand -5.06226 -43.6393
rfingers 7.12502
rthumb 20.7336 -72.5517
lclavicle -4.96962e-015 7.15625e-015
lhumerus 22.5266 25.3911 -14.1254
lradius 32.5396
lwrist 55.89
lhand -20.0357 -12.9662
lfingers 7.12502
lthumb 6.30539 16.9199
rfemur -10.8568 10.994 -9.08829
rtibia 10.2835
rfoot -17.0388 -20.9555
rtoes 43.4344
lfemur -18.2958 3.05388 -30.9493
ltibia 15.9949
lfoot -16.0724 1.46364
ltoes 8.96049
1081
root 5.56185 17.4424 1.42672 19.7111 2.75812 1.14897
lowerback -10.654 -1.21287 9.68599
upperback -14.2216 -2.01161 0.600997
thorax -9.83746 -1.95931 -4.76543
lowerneck -4.1684 20.0685 10.3606
upperneck 9.33336 26.1625 0.564881
head 4.6794 13.2615 0.353338
rclavicle -3.24019e-014 0
rhumerus -8.67851 -30.3282 31.057
rradius 112.563
rwrist -63.3971
rhand -5.39888 -43.5933
rfingers 7.12502
rthumb 20.4101 -72.5407
lclavicle -3.24019e-014 0
lhumerus 22.5536 25.5191 -13.9977
lradius 32.5641
lwrist 55.7644
lhand -19.9559 -13.0226
lfingers 7.12502
lthumb 6.3824 16.8612
rfemur -11.0988 10.9267 -9.07196
rtibia 10.411
rfoot -16.7937 -21.2179
rtoes 42.793
lfemur -18.4967 2.8791 -30.8956
ltibia 15.9662
lfoot -16.016 1.50596
ltoes 8.88166
1082
root 5.56144 17.4421 1.42562 19.7267 2.70522 1.10907
lowerback -10.6624 -1.19582 9.69213
upperback -14.2488 -1.98766 0.619534
thorax -9.86055 -1.94876 -4.74774
lowerneck -3.63812 20.0058 10.4796
upperneck 8.85039 26.1577 0.245691
head 4.50338 13.2475 0.17317
rclavicle -2.28602e-014 2.46493e-014
rhumerus -8.61426 -30.2315 30.9795
rradius 112.625
rwrist -63.3888
rhand -5.36539 -43.6241
rfingers 7.12502
rthumb 20.4423 -72.568
lclavicle -2.28602e-014 2.46493e-014
lhumerus 22.4995 25.4085 -14.0453
lradius 32.5913
lwrist 55.7604
lhand -20.4541 -13.52
lfingers 7.12502
lthumb 5.90142 16.3778
rfemur -11.2635 10.8867 -9.0514
rtibia 10.5543
rfoot -16.2264 -21.5311
rtoes 42.0633
lfemur -18.527 2.87095 -30.861
ltibia 15.9618
lfoot -15.9721 1.58672
ltoes 9.05244
1083
root 5.56216 17.4444 1.42619 19.7541 2.68136 1.08699
lowerback -10.7146 -1.1912 9.6863
upperback -14.2487 -1.98709 0.624281
thorax -9.82976 -1.94644 -4.74113
lowerneck -3.40198 19.9831 10.601
upperneck 8.66641 26.1604 0.0807502
head 4.4467 13.2447 0.0845125
rclavicle 1.88845e-014 1.27222e-014
rhumerus -8.615 -30.2306 30.9384
rradius 112.639
rwrist -63.3885
rhand -5.01154 -43.5985
rfingers 7.12502
rthumb 20.7823 -72.5056
lclavicle 1.88845e-014 1.27222e-014
lhumerus 22.2905 25.0224 -14.3864
lradius 32.718
lwrist 56.2231
lhand -21.0782 -13.9382
lfingers 7.12502
lthumb 5.29882 15.9755
rfemur -11.3309 10.8566 -9.04261
rtibia 10.5823
rfoot -15.3009 -22.0955
rtoes 40.6581
lfemur -18.5894 2.88229 -30.8494
ltibia 15.9979
lfoot -15.939 1.64854
ltoes 9.12458
1084
root 5.56299 17.4457 1.42275 19.7754 2.70258 1.13523
lowerback -10.6947 -1.19808 9.6296
upperback -14.2642 -1.99167 0.606477
thorax -9.85625 -1.94582 -4.72807
lowerneck -3.54374 19.9893 10.6175
upperneck 8.90383 26.1448 0.181888
head 4.5311 13.2437 0.138546
rclavicle -4.19436e-014 2.38542e-014
rhumerus -8.65855 -30.2261 31.0097
rradius 112.617
rwrist -63.4024
rhand -4.764 -43.4179
rfingers 7.12502
rthumb 21.0201 -72.2987
lclavicle -4.19436e-014 2.38542e-014
lhumerus 22.2362 24.8611 -14.4951
lradius 32.795
lwrist 56.5408
lhand -21.2662 -13.9932
lfingers 7.12502
lthumb 5.11727 15.925
rfemur -11.2926 10.7917 -9.08956
rtibia 10.4948
rfoot -14.9474 -22.3817
rtoes 40.1678
lfemur -18.6375 2.95774 -30.9234
ltibia 16.0448
lfoot -15.9569 1.58088
ltoes 8.88242
1085
root 5.56414 17.445 1.41818 19.753 2.75812 1.16356
lowerback -10.6281 -1.21202 9.63551
upperback -14.2815 -2.00259 0.59326
thorax -9.91822 -1.95576 -4.74294
lowerneck -3.70299 20.0001 10.589
upperneck 9.18358 26.1368 0.291365
head 4.62536 13.2462 0.203906
rclavicle 2.80286e-014 -1.98785e-014
rhumerus -8.6375 -30.1878 31.0237
rradius 112.588
rwrist -63.2955
rhand -4.64716 -43.3364
rfingers 7.12502
rthumb 21.1324 -72.2047
lclavicle 2.80286e-014 -1.98785e-014
lhumerus 22.2797 24.9315 -14.4234
lradius 32.7667
lwrist 56.5187
lhand -20.8857 -13.9751
lfingers 7.12502
lthumb 5.48469 15.9339
rfemur -11.1483 10.7106 -9.09307
rtibia 10.3016
rfoot -15.0119 -22.4618
rtoes 40.3793
lfemur -18.6259 2.98868 -30.9588
ltibia 16.0806
lfoot -16.0398 1.48687
ltoes 8.75726
